<svg width="120" height="74" viewBox="0 0 120 74" fill="none" xmlns="http://www.w3.org/2000/svg">
<path d="M24.1 32.1109H4C1.8 32.1109 0 30.3109 0 28.1109V8.81091C0 6.61091 1.8 4.81091 4 4.81091H24.1C26.3 4.81091 28.1 6.61091 28.1 8.81091V28.0109C28.1 30.3109 26.3 32.1109 24.1 32.1109Z" fill="white"/>
<path d="M110.6 27.0109H48.6C43.9 27.0109 40 23.2109 40 18.4109C40 13.7109 43.8 9.81091 48.6 9.81091H110.6C115.3 9.81091 119.2 13.6109 119.2 18.4109C119.2 23.2109 115.4 27.0109 110.6 27.0109Z" fill="#6CC5E7"/>
<path d="M110.6 68.5109H48.6C43.9 68.5109 40 64.7109 40 59.9109C40 55.2109 43.8 51.3109 48.6 51.3109H110.6C115.3 51.3109 119.2 55.1109 119.2 59.9109C119.2 64.7109 115.4 68.5109 110.6 68.5109Z" fill="#6CC5E7"/>
<path d="M24.1 73.5109H4C1.8 73.5109 0 71.7109 0 69.5109V50.3109C0 48.1109 1.8 46.3109 4 46.3109H24.1C26.3 46.3109 28.1 48.1109 28.1 50.3109V69.5109C28.1 71.8109 26.3 73.5109 24.1 73.5109Z" fill="white"/>
<path d="M3.2 16.3109C6.3 19.5109 9.4 22.6109 12.5 25.8109C13.3 26.6109 14.6 26.4109 15.2 25.511C20.1 18.2109 25 10.8109 29.9 3.51095C31.1 1.71095 28.2 -0.089051 26.9 1.81095C22 9.11095 17.1 16.5109 12.2 23.8109C13.1 23.7109 14 23.611 14.9 23.511C11.8 20.3109 8.7 17.2109 5.6 14.0109C4.1 12.3109 1.7 14.7109 3.2 16.3109Z" fill="#F36A00" stroke="#FC580A" stroke-width="1.0294" stroke-miterlimit="10"/>
</svg>
